<?xml version="1.0" encoding="utf-8"?>
<!-- Generator: Adobe Illustrator 19.0.0, SVG Export Plug-In . SVG Version: 6.00 Build 0)  -->
<svg version="1.1" id="Layer_1" xmlns="http://www.w3.org/2000/svg" xmlns:xlink="http://www.w3.org/1999/xlink" x="0px" y="0px"
	 viewBox="0 47 1920 987" style="enable-background:new 0 47 1920 987;" xml:space="preserve">
<style type="text/css">
	.st0{fill:#1A1A1A;stroke:#1A1A1A;stroke-miterlimit:10;}
	.st1{fill:none;stroke:#1A1A1A;stroke-width:11;stroke-linecap:round;stroke-miterlimit:10;}
	.st2{fill:#1A1A1A;}
	.st3{font-family:'LMRoman12-Bold';}
	.st4{font-size:54px;}
	.st5{fill:none;stroke:#1A1A1A;stroke-miterlimit:10;}
	.st6{fill:#1A1A1A;stroke:#FFFFFF;stroke-width:4;stroke-miterlimit:10;}
</style>
<g>
	<path class="st0" d="M473.9,310c0-1.6,0-3,0-5.2c-2.4,0.6-4.8,0.6-6.5,1.6c-19.2,11.6-30,28.1-30,51.2c0.1,53.4,0.1,106.9,0,160.3
		c0,19.4-6.2,36.1-21.6,48.7c-2.7,2.2-2.8,5-0.1,7.2c16,12.9,21.7,30.1,21.7,50c0,52.7,0.1,105.4,0,158
		c-0.1,22.9,10.5,39.4,29.6,50.9c1.8,1.1,4.1,1.3,6.7,2.2c0.2-2.3,0.3-3.7,0.4-5.2c-0.9-0.7-1.5-1.3-2.2-1.8
		c-14.6-11-21.2-26-21.3-43.9c-0.2-52.8-0.3-105.7,0-158.5c0.1-23.3-9.1-41-28.2-53.9c-0.5-0.3-0.9-0.8-1.6-1.3
		c2.7-2.1,5.4-3.9,7.9-6c14.5-12.1,21.9-27.6,21.8-46.6c-0.1-52.8,0.1-105.7-0.1-158.5C450.4,338.9,456.9,322.1,473.9,310z"/>
	<path class="st0" d="M821.9,434.1c0,1.7,0,3.2,0,4.9c86.3,0,172.4,0,258.7,0c0-1.7,0-3.1,0-4.9
		C994.5,434.1,908.4,434.1,821.9,434.1z"/>
	<path class="st0" d="M827.3,494.2c1.3,1.8,2.6,3.4,4.3,5.6c0.8-2.1,1.4-3.8,2-5.4c3.9-10.5,10.1-12.2,18.2-10.3
		c7.8,1.8,13,10.7,11,18.8c-1,4-2.9,8.1-5.4,11.2c-4.3,5.2-9.4,9.7-14.2,14.5c-3.1,3.1-6.3,6.1-9.3,9.2c-1.9,1.9-3.7,3.9-5.6,5.9
		c0,2.2,0,4.3,0,6.6c14.5,0,28.9,0,43.6,0c0-2.3,0-4.5,0-7.3c-11.4,0-22.7,0-34.8,0c4.9-5.1,9.1-9.7,13.6-14
		c4.8-4.6,9.9-8.8,14.6-13.5c7.2-7.3,8.8-16,5-25.4c-3.6-9-12.1-14-22.4-13.8c-8.9,0.2-15.9,5.4-19.4,14.4
		C828,491.9,827.7,493,827.3,494.2z"/>
	<path class="st0" d="M581.5,806.4c-12.3-8-24-6.9-32.5,2.7c-8.2,9.3-8.1,23.3,0.1,32.7c8.1,9.3,19.1,10,31.7,2
		c0.2,1.8,0.4,3.6,0.6,5.8c5.1-0.3,10.1-0.6,15.4-0.9c0-1.1,0-2.1,0-3c-0.3-0.2-0.6-0.4-0.8-0.4c-7.1-0.4-7.5-0.8-7.5-8
		c0-19.8,0-39.5,0-59.3c0-1.6,0-3.3,0-5.3c-5.4,0.3-10.3,0.7-15.5,1c-0.1,0.5-0.3,1-0.4,1.6c-0.1,0.4,0.1,0.9,0.1,1.6
		c1.1,0.1,2.3,0.2,3.4,0.3c3.9,0.3,5.1,1.3,5.2,5.3C581.6,790.2,581.5,798,581.5,806.4z M581.2,824.3c0,3.3,0.2,6.7-0.1,10
		c-0.2,2.2-0.8,4.5-2,6.3c-3.4,5-8.3,7.4-14.4,6.4c-6.4-1.1-10-5.4-11.5-11.3c-1.7-6.5-1.6-13.2-0.1-19.7c1.1-4.6,3.5-8.3,7.7-10.7
		c4.7-2.7,9.5-2.8,14.2-0.1c4.4,2.5,6.8,6.2,6.3,11.6C581,819.2,581.2,821.7,581.2,824.3z"/>
	<path class="st0" d="M574.2,497.5c-12.3-8-24-6.9-32.5,2.7c-8.2,9.3-8.1,23.3,0.1,32.7c8.1,9.3,19.1,10,31.7,2
		c0.2,1.8,0.4,3.6,0.6,5.8c2.6-0.2,5.1-0.3,7.5-0.5c2.5-0.2,5.1-0.3,7.9-0.5c0-1.1,0-2.1,0-3c-0.3-0.2-0.6-0.4-0.8-0.4
		c-7.1-0.4-7.5-0.8-7.5-8c0-19.8,0-39.5,0-59.3c0-1.6,0-3.3,0-5.3c-5.4,0.3-10.3,0.7-15.6,1c-0.1,1-0.2,1.9-0.4,3.2
		c1.3,0.1,2.5,0.2,3.6,0.3c3.9,0.3,5.1,1.3,5.2,5.3C574.3,481.3,574.2,489.1,574.2,497.5z M573.9,515.5c0,2.9,0.2,5.8-0.1,8.6
		c-0.3,2.5-0.5,5.3-1.8,7.2c-3.4,5.2-8.4,7.7-14.7,6.6c-6.6-1.2-10.6-5.7-11.4-11.9c-0.8-6.2-0.7-12.6,0-18.8
		c0.6-5.4,4.1-9.6,9.4-11.9c9-3.9,18.6,2.3,18.7,12C573.9,510.1,573.9,512.8,573.9,515.5z"/>
	<path class="st0" d="M567.3,384.2c0.2,2.2,0.4,3.9,0.6,6c5.1-0.3,10.1-0.6,15.3-1c0.1-1,0.2-2,0.4-3.2c-1.3-0.1-2.5-0.3-3.7-0.3
		c-3.2,0.1-4.7-1.6-4.9-4.6c-0.1-1.4-0.1-2.7-0.1-4.1c0-19.5,0-38.9,0-58.4c0-1.6,0-3.3,0-5.4c-5.4,0.3-10.5,0.6-15.7,1
		c0,1.2,0,2.1,0,3.4c1.5,0.1,2.8,0.2,4.1,0.2c2.8,0,4.3,1.6,4.4,4.2c0.1,8.2,0.1,16.5,0.1,24.9c-13.6-7.8-25-6.4-33.2,3.8
		c-7.5,9.4-6.9,23.6,1.4,32.3C544.5,391.9,555.4,392.5,567.3,384.2z M567.6,364.8c0,3.5,0.2,7-0.1,10.4c-0.2,2-0.7,4.2-1.9,5.9
		c-3.5,5.1-8.5,7.6-14.8,6.4c-6.6-1.3-10.5-5.8-11.3-12c-0.8-6-0.7-12.3-0.1-18.4c0.5-5.1,3.6-9.2,8.4-11.7
		c9.2-4.9,19.7,1.3,19.8,11.7C567.6,359.7,567.6,362.2,567.6,364.8z"/>
	<path class="st0" d="M587.2,694c0.2,2.2,0.4,4,0.5,6.1c5.1-0.3,10.1-0.6,15.4-1c0.1-1,0.2-2.1,0.2-3.1c-8.5-1-8.5-1-8.5-9.4
		c0-19.3,0-38.6,0-57.9c0-1.6,0-3.3,0-5.5c-5.4,0.3-10.4,0.6-15.6,0.9c0,1.1,0,2.1,0,3.3c1.2,0.1,2.3,0.2,3.5,0.2
		c3.1-0.1,4.9,1.5,5,4.5c0.1,8.1,0,16.2,0,25.1c-6-5.1-12-7.3-19.2-5.5c-6,1.5-10.8,4.5-14.5,9.3c-7.1,9.5-6.2,23.5,2.1,31.9
		C564.8,701.9,575.7,702.4,587.2,694z M587.5,674.8c0,3.3,0.2,6.7-0.1,10c-0.2,2.2-0.8,4.5-2,6.3c-3.4,5-8.3,7.4-14.4,6.4
		c-6.4-1.1-10-5.4-11.5-11.3c-1.7-6.5-1.6-13.2-0.1-19.7c1.1-4.6,3.5-8.3,7.7-10.7c4.7-2.7,9.5-2.8,14.2-0.1
		c4.4,2.5,6.8,6.2,6.3,11.6C587.3,669.7,587.5,672.3,587.5,674.8z"/>
	<path class="st0" d="M1389.4,463.4c0.5-2.4,0.9-4.4,1.4-6.9c-11.6,0-22.8,0-34.7,0c4.9-23.4,9.7-46.2,14.6-69.5c-3.3,0-6.3,0-9.8,0
		c-5.4,25.3-10.7,50.7-16.2,76.4C1359.9,463.4,1374.5,463.4,1389.4,463.4z"/>
	<path class="st0" d="M1002.2,312.6c-3.4,0-6.5,0-9.8,0c-5.4,25.5-10.8,50.8-16.2,76.4c15,0,29.5,0,44.6,0c0.4-2,0.8-4.3,1.3-7
		c-11.7,0-23,0-34.6,0C992.5,358.7,997.3,335.8,1002.2,312.6z"/>
	<path class="st0" d="M1032.6,550.4c0.5-2.4,0.9-4.4,1.4-6.9c-11.6,0-22.8,0-34.7,0c2.5-11.9,4.9-23.3,7.3-34.7
		c2.4-11.5,4.8-23,7.3-34.8c-3.3,0-6.3,0-9.8,0c-5.4,25.3-10.7,50.7-16.2,76.4C1003.1,550.4,1017.6,550.4,1032.6,550.4z"/>
	<path class="st0" d="M912.3,768.1c7.1,7.4,13,8.4,21.5,3.2c10.9-6.8,16.8-16.6,16.5-29.7c-0.3-12.8-11.7-19.7-23.2-14.2
		c-8.4,4-14.3,10.8-16.8,19.7c-4.2,14.9-7.8,29.9-11.6,44.9c-0.5,1.9-0.7,4,1.9,4.9c2.1,0.7,4.5-1,5.2-3.8
		c1.7-6.2,3.1-12.5,4.7-18.8C911.1,772.2,911.7,770.3,912.3,768.1z M942.6,738.6c-0.9,8.4-2.4,16.8-7,24c-2.1,3.3-5.2,6.4-8.6,8.2
		c-6.4,3.5-14.4-2.4-12.9-9.5c1.5-7.5,3.9-14.8,6.6-21.9c1.8-4.8,5.5-8.6,10.5-10.7c5-2.1,9.5,0.2,10.8,5.4
		C942.3,735.6,942.4,737.1,942.6,738.6z"/>
	<path class="st0" d="M1032.3,416.1c3.8,0.9,6.5,0.3,9.2-2.4c8.6-9,13.7-19.7,16.1-31.8c3.4-17.5,2.9-34.8-3.2-51.7
		c-2.7-7.4-6.9-14-12.3-19.9c-2.6-2.9-5.4-4.2-9.7-3.1c14.4,15.5,18.6,34.2,18.6,54.5C1050.9,381.9,1046.9,400.6,1032.3,416.1z"/>
	<path class="st0" d="M1044.1,577.4c4.2,1.1,7,0,9.7-2.9c8.4-9,13.4-19.6,15.7-31.6c3.3-17.5,2.8-34.8-3.3-51.7
		c-2.7-7.4-7-14-12.3-19.8c-2.6-2.9-5.4-4.1-9.5-2.8c14.4,15.3,18.5,34,18.5,54.2C1062.7,543,1058.7,561.7,1044.1,577.4z"/>
	<path class="st0" d="M971.1,468.6c-4.7-1.4-7.5,0.4-10.2,3.3c-8.4,9.3-13.4,20.3-15.5,32.6c-3,17.4-2.4,34.5,4,51.1
		c2.6,6.8,6.5,12.8,11.4,18.3c2.6,2.9,5.3,4.9,10.1,3.4c-14.5-15.3-18.6-34.2-18.6-54.3C952.3,503,956.2,484.1,971.1,468.6z"/>
	<path class="st0" d="M959.2,416.1c-14.8-15.6-18.7-34.4-18.7-54.5s4.1-38.9,18.7-54.2c-3.9-1.1-6.7-0.4-9.3,2.4
		c-9,9.5-14.2,20.8-16.4,33.6c-3,17.4-2.3,34.5,4.1,51.1c2.6,6.8,6.6,12.8,11.4,18.3C951.7,415.8,954.5,417.4,959.2,416.1z"/>
	<path class="st0" d="M898,508.3c-3,14.2-5.9,28-8.8,42c3,0,5.4,0,8.2,0c3-14,5.9-27.8,9-42c3.9,0,7.7,0,12,0c0.5-2.3,1-4.2,1.5-6.6
		c-4.2,0-7.9,0-12.6,0c1.4-5.8,2.3-11.3,4.2-16.4c1.6-4.5,7.6-6.8,13.1-5.9c2,0.3,4.1,0.8,6.3,1.3c0.5-2.4,1-4.5,1.5-6.6
		c-11.4-4.9-26.6,1.6-30.3,15.9c-1,3.8-1.8,7.5-2.8,11.5c-2.6,0-5,0-7.8,0c-0.5,2.1-0.9,4-1.4,6.3
		C892.8,508.1,895.2,508.2,898,508.3z"/>
	<path class="st0" d="M845.7,389.1c3,0,5.4,0,8.2,0c3-14,5.9-27.8,9-42c3.9,0,7.7,0,12,0c0.5-2.3,1-4.2,1.5-6.6c-4.2,0-7.9,0-12.6,0
		c1.4-5.8,2.3-11.3,4.2-16.4c1.6-4.5,7.6-6.8,13.1-5.9c2,0.3,4.1,0.8,6.3,1.3c0.5-1.8,0.9-3.4,1.3-5c0.1-0.6,0.1-1.2,0.1-1.7
		c-11.2-4.8-26.4,1.7-30.1,15.9c-1,3.8-1.8,7.5-2.8,11.5c-2.6,0-5,0-7.8,0c-0.5,2.1-0.9,4-1.4,6.3c2.8,0.1,5.1,0.3,8,0.4
		C851.6,361.2,848.7,375,845.7,389.1z"/>
	<path class="st0" d="M1156.9,370c-1.4,1-2.9,1.9-4.1,3.1c-11.1,10.3-17.6,23.3-20.7,37.9c-4.9,23.1-4.1,45.9,5.7,67.8
		c3.7,8.2,8.8,15.4,15.5,21.5c1.1,1,2.5,1.7,3.8,2.6c0.2-0.2,0.4-0.5,0.6-0.7c-4.1-6.5-8.9-12.6-12.1-19.6
		c-3.2-7.1-5.3-14.8-6.7-22.4c-1.4-7.8-1.8-15.9-1.8-23.8c0-7.8,0.4-15.7,1.8-23.4c1.4-7.6,3.5-15.3,6.7-22.4c3.1-7,8-13.2,12-19.8
		C1157.3,370.5,1157.1,370.3,1156.9,370z"/>
	<path class="st0" d="M1399.4,371.4c0.3,0.6,0.5,1.3,1,1.8c10.1,10.9,15.4,24.1,17.9,38.4c3.2,18.9,3.1,37.8-1.5,56.6
		c-2.7,11.2-7.5,21.3-15,30c-0.9,1-1.6,2.1-2.4,3.2c0.3,0.4,0.7,0.7,1,1.1c1.5-1,3.1-1.9,4.3-3.1c10.3-9.8,16.6-21.8,19.8-35.4
		c5.9-24.9,4.9-49.4-6.6-72.8c-3.4-7-8.1-13.1-13.7-18.4c-1.1-1-2.4-1.7-3.6-2.6C1400.1,370.7,1399.7,371.1,1399.4,371.4z"/>
	<path class="st0" d="M983.7,742.6c-4-6.2-7.6-12.1-11.3-17.9c-2.9,0-5.5,0-9,0c5.2,8,10.2,15.5,15.4,23.5
		c-8.5,8.1-17.1,16.2-26.3,24.9c5.2,0.6,9,0.7,12.3-3.3c4.1-4.8,8.8-9.1,13.3-13.6c1-1.1,2.1-2.1,3.5-3.3c4.1,7,8,13.6,12,20.3
		c2.9,0,5.6,0,9.1,0c-5.5-8.4-10.8-16.5-16.4-25c8-7.6,16.1-15.3,24.2-23c-6.1-1.6-7.7-1.2-11.6,2.6
		C993.9,732.8,988.9,737.5,983.7,742.6z"/>
	<path class="st0" d="M1492.6,443.4c3.9,6.6,7.8,13.2,11.8,20c2.8,0,5.6,0,9.1,0c-5.5-8.4-10.8-16.4-16.4-25
		c8-7.6,16.1-15.2,24.6-23.4c-3.2,0-5.7,0-8.9,0c-5.7,5.5-11.8,11.4-18.3,17.7c-3.9-6.2-7.6-12-11.3-17.9c-2.8,0-5.5,0-9,0
		c5.2,8,10.2,15.5,15.4,23.5c-8.5,8.1-17.1,16.2-26.2,24.9c5.1,0.8,8.8,0.7,12.2-3.1C1480.9,454.3,1486.8,449.1,1492.6,443.4z"/>
	<path class="st0" d="M586.8,388.8c5.5,1.4,9.2,0.3,12.6-3.5c5-5.6,10.7-10.6,16.4-16.1c3.9,6.7,7.9,13.4,11.8,20.1
		c2.9,0,5.6,0,9.1,0c-5.6-8.5-10.9-16.6-16.4-25.1c8.1-7.7,16.2-15.3,24.7-23.5c-3.5,0-6.1,0-8.7,0c-0.4-0.4-0.7-0.8-1.1-1.2
		c-5.5,6.4-11,12.8-17.1,19.8c-4.3-6.9-8-12.7-11.7-18.6c-2.8,0-5.4,0-9,0c5.2,8,10.2,15.5,15.4,23.5
		C604.3,372.3,595.8,380.3,586.8,388.8z"/>
	<path class="st0" d="M629.2,806c5.4,0,10.4,0,15.5,0c0.4-2.2,0.8-4,1.3-6.3c-5.2,0-10.1,0-15.4,0c1-5,1.9-9.5,2.8-14.2
		c-2.5,0-4.7,0-7.4,0c-1,4.5-2.1,9.2-3.2,14.1c-3,0-6,0-9.3,0c-0.5,2.2-0.9,4.2-1.4,6.4c3.1,0.1,5.8,0.3,9,0.4
		c-1.2,5.9-2.5,11.4-3.6,17c-1.1,6-2.5,12.1-3,18.2c-0.5,6.1,2.4,8.7,8.5,8c5-0.6,9.9-2.1,14.8-3.2c0-2.7,0-4.6,0-6.7
		c-2.8,1-5.3,2.2-7.9,2.7c-5.8,1-8-1.2-6.9-7c1.1-5.9,2.5-11.8,3.7-17.7C627.4,813.9,628.2,810.2,629.2,806z"/>
	<path class="st0" d="M630.7,536.4c-0.1-2.1-0.2-3.9-0.3-5.8c-2.9,1-5.4,2.2-7.9,2.7c-5.8,1-7.9-1.3-6.9-7
		c1.1-5.9,2.5-11.8,3.7-17.7c0.8-3.6,1.6-7.3,2.5-11.2c5.1,0,10.1,0,15.4,0c0.5-2.2,0.9-4.2,1.4-6.6c-5.3,0-10.2,0-15.5,0
		c1-4.8,1.8-9.3,2.8-14c-2.4,0-4.7,0-7.5,0c-1,4.4-2,9-3.1,14c-3.1,0-6,0-9.3,0c-0.5,2.1-0.9,4-1.5,6.3c2.9,0,5.5,0,8.8,0
		c-0.2,1.9-0.3,3.3-0.6,4.7c-1.7,8.2-3.6,16.5-5.2,24.7c-0.5,2.5-0.7,5.1-0.6,7.6c0.1,4.4,2.5,6.6,6.9,6.6
		C619.7,540.7,625.2,539.2,630.7,536.4z"/>
	<path class="st0" d="M524.8,434.1c0,1.8,0,3.2,0,4.9c41.6,0,83,0,124.6,0c0-1.7,0-3.1,0-4.9C608,434.1,566.6,434.1,524.8,434.1z"/>
	<path class="st0" d="M1195.7,386.8c-2.9,0-5.3,0-8.2,0c-5.4,25.4-10.8,50.8-16.2,76.5c2.8,0,5.3,0,8.3,0
		C1184.9,438,1190.3,412.6,1195.7,386.8z"/>
	<path class="st0" d="M639.6,622.3c-2.8,0-5.2,0-8.2,0c-5.4,25.4-10.8,50.9-16.3,76.7c2.8,0,5.4,0,8.3,0
		C628.8,673.6,634.1,648.2,639.6,622.3z"/>
	<path class="st0" d="M1011.8,773.2c2.7,0,5.2,0,8.3,0c5.4-25.4,10.8-50.9,16.2-76.6c-2.9,0-5.4,0-8.3,0
		C1022.7,722.1,1017.3,747.5,1011.8,773.2z"/>
	<path class="st0" d="M649.4,747.8c0-1.4,0-2.6,0-4c-36.6,0-73.1,0-110,0c-0.1,1.2-0.3,2.4-0.4,4
		C575.9,747.8,612.5,747.8,649.4,747.8z"/>
	<path class="st0" d="M977.7,455.8c0,1.8,0,3.2,0,4.9c20.2,0,40.1,0,60.3,0c0-1.7,0-3.1,0-4.9C1018,455.8,998,455.8,977.7,455.8z"/>
	<path class="st0" d="M1393.9,374.6c0-1.8,0-3.2,0-4.9c-20.2,0-40.1,0-60.3,0c0,1.7,0,3.1,0,4.9
		C1353.6,374.6,1373.6,374.6,1393.9,374.6z"/>
	<path class="st0" d="M1026.2,299.4c0-1.6,0-3.1,0-4.9c-19.9,0-39.9,0-60.2,0c0,1.5,0,3.1,0,4.9C986,299.4,1006,299.4,1026.2,299.4z
		"/>
	<path class="st0" d="M772.1,445.9c-1.8-0.5-3.5-1.3-5.1-1.3c-21.4-0.1-42.8-0.1-64.3,0c-0.9,0-1.9,0-2.6,0.4
		c-0.7,0.3-1.6,1.3-1.5,1.8c0.2,0.8,1,1.8,1.8,2.1c0.9,0.4,2.1,0.2,3.1,0.2c21.1,0,42.2,0,63.4,0C768.8,449.1,771,449.7,772.1,445.9
		z"/>
	<path class="st0" d="M772,424.2c-1.4-0.4-2.8-1.2-4.2-1.3c-21.7-0.1-43.4-0.1-65.2-0.1c-0.8,0-1.7-0.2-2.2,0.2
		c-0.8,0.5-1.6,1.3-1.8,2.2c-0.1,0.5,0.8,1.6,1.5,1.8c1.1,0.4,2.4,0.4,3.5,0.4c20.8,0,41.6,0,62.4,0c1.9,0,3.8-0.7,5.7-1.1
		C771.9,425.6,772,424.9,772,424.2z"/>
	<path class="st0" d="M772,734c-1.4-0.4-2.8-1.3-4.2-1.3c-21.7-0.1-43.4-0.1-65.2-0.1c-0.8,0-1.7-0.2-2.2,0.2
		c-0.8,0.5-1.6,1.3-1.8,2.2c-0.1,0.5,0.8,1.6,1.5,1.8c1.1,0.4,2.4,0.4,3.5,0.4c20.8,0,41.6,0,62.4,0c1.9,0,3.8-0.7,5.7-1.1
		C771.9,735.5,772,734.7,772,734z"/>
	<path class="st0" d="M698.1,756.6c1,0.8,1.8,1.8,2.9,2.3c0.7,0.4,1.8,0.1,2.7,0.1c21,0,41.9,0,62.9,0c2,0,4.4,0.7,5.5-3
		c-1.6-0.5-3.2-1.4-4.7-1.4c-21.6-0.1-43.1-0.1-64.7,0c-1.3,0-2.6,0.5-3.8,0.7C698.6,755.7,698.3,756.2,698.1,756.6z"/>
	<path class="st0" d="M1300.1,434.7c-1.4-0.3-2.9-0.9-4.5-0.9c-19.3-0.1-38.6-0.1-58,0c-1.5,0-3.1,0.6-4.5,1c-0.3,2.8,1,3.5,2.9,3.5
		c2.1,0,4.2,0,6.3,0c17.8,0,35.6,0,53.4,0C1297.9,438.3,1300.4,438.7,1300.1,434.7z"/>
	<path class="st0" d="M817.9,746.5c1.3,0.5,2.6,1.5,3.9,1.5c20.1,0.1,40.1,0.1,60.2,0.1c2.1,0,3.6-0.4,3.1-3.6
		c-1.4-0.3-2.9-0.8-4.4-0.9c-19.2-0.1-38.3-0.1-57.5,0c-1.7,0-3.3,0.6-5,0.9C818.1,745.2,818,745.9,817.9,746.5z"/>
	<path class="st0" d="M896,344.9c1.2,0.5,2.1,0.9,3.2,1.4c0.7-1.2,1.4-2.2,1.8-3.2c4.3-9.4,8.6-18.9,12.8-28.3
		c1.9-4.3,1.5-6.7-1.1-7.8c-3.1-1.3-5.2,0.1-6.6,4.6C902.8,322.6,899.5,333.6,896,344.9z"/>
</g>
<g id="XMLID_5_">
	<g id="XMLID_7_">
		<line id="XMLID_10_" class="st1" x1="908.9" y1="182" x2="923.7" y2="242.4"/>
		<g id="XMLID_8_">
			<polygon id="XMLID_9_" class="st2" points="890.8,228.2 921.4,233.2 946.2,214.6 934.6,287.1 			"/>
		</g>
	</g>
</g>
<g>
	<g>
		<line class="st1" x1="1357.7" y1="204.5" x2="1288.8" y2="329.4"/>
		<g>
			<polygon class="st2" points="1274.3,296.7 1293.4,321.1 1324.2,324.2 1266.6,369.7 			"/>
		</g>
	</g>
</g>
<g>
	<g>
		<line class="st1" x1="1627.6" y1="351.8" x2="1566.2" y2="371.4"/>
		<g>
			<polygon class="st2" points="1578.1,337.7 1575.2,368.5 1595.5,392 1522.4,385.4 			"/>
		</g>
	</g>
</g>
<g id="XMLID_1_">
	<g id="XMLID_25_">
		<line id="XMLID_28_" class="st1" x1="1420.6" y1="825.1" x2="1089.1" y2="757.1"/>
		<g id="XMLID_26_">
			<polygon id="XMLID_27_" class="st2" points="1116,733.5 1098.4,759 1104.6,789.4 1044.1,747.8 			"/>
		</g>
	</g>
</g>
<g>
	<g>
		<line class="st1" x1="1129.2" y1="941" x2="1029.6" y2="828.4"/>
		<g>
			<polygon class="st2" points="1065.3,825.7 1035.9,835.5 1022.6,863.5 999.2,794 			"/>
		</g>
	</g>
</g>
<g>
	<g>
		<line class="st1" x1="788.7" y1="941" x2="863.7" y2="825.1"/>
		<g>
			<polygon class="st2" points="875.9,858.7 858.5,833 828,827.7 888.7,786.5 			"/>
		</g>
	</g>
</g>
<text transform="matrix(1 0 0 1 36.29 196.494)" class="st3 st4">Variation of</text>
<text transform="matrix(1 0 0 1 36.29 196.494)" class="st5 st3 st4">Variation of</text>
<text transform="matrix(1 0 0 1 85.89 261.294)" class="st3 st4">PRDM9</text>
<text transform="matrix(1 0 0 1 85.89 261.294)" class="st5 st3 st4">PRDM9</text>
<text transform="matrix(1 0 0 1 67.89 326.094)" class="st3 st4">frequency</text>
<text transform="matrix(1 0 0 1 67.89 326.094)" class="st5 st3 st4">frequency</text>
<text transform="matrix(1 0 0 1 36.2898 817.5416)" class="st3 st4">Variation of</text>
<text transform="matrix(1 0 0 1 36.2898 817.5416)" class="st5 st3 st4">Variation of</text>
<text transform="matrix(1 0 0 1 84.7898 882.3416)" class="st3 st4">hotspots</text>
<text transform="matrix(1 0 0 1 84.7898 882.3416)" class="st5 st3 st4">hotspots</text>
<text transform="matrix(1 0 0 1 102.5898 947.1416)" class="st3 st4">erosion</text>
<text transform="matrix(1 0 0 1 102.5898 947.1416)" class="st5 st3 st4">erosion</text>
<text transform="matrix(1 0 0 1 1256.2854 166.5144)" class="st3 st4">Deviation to mean</text>
<text transform="matrix(1 0 0 1 1256.2854 166.5144)" class="st5 st3 st4">Deviation to mean</text>
<text transform="matrix(1 0 0 1 1409.0854 231.3144)" class="st3 st4">erosion</text>
<text transform="matrix(1 0 0 1 1409.0854 231.3144)" class="st5 st3 st4">erosion</text>
<text transform="matrix(1 0 0 1 1661.9082 351.7548)" class="st3 st4">PRDM9</text>
<text transform="matrix(1 0 0 1 1661.9082 351.7548)" class="st5 st3 st4">PRDM9</text>
<text transform="matrix(1 0 0 1 1643.9082 416.5548)" class="st3 st4">frequency</text>
<text transform="matrix(1 0 0 1 1643.9082 416.5548)" class="st5 st3 st4">frequency</text>
<text transform="matrix(1 0 0 1 1439.4561 811.0759)" class="st3 st4">Hotspots</text>
<text transform="matrix(1 0 0 1 1439.4561 811.0759)" class="st5 st3 st4">Hotspots</text>
<text transform="matrix(1 0 0 1 1464.156 875.8759)" class="st3 st4">erosion</text>
<text transform="matrix(1 0 0 1 1464.156 875.8759)" class="st5 st3 st4">erosion</text>
<text transform="matrix(1 0 0 1 625.6063 998.9613)" class="st3 st4">Erosion rate</text>
<text transform="matrix(1 0 0 1 625.6063 998.9613)" class="st5 st3 st4">Erosion rate</text>
<text transform="matrix(1 0 0 1 1155.9181 949.4642)" class="st3 st4">PRDM9</text>
<text transform="matrix(1 0 0 1 1155.9181 949.4642)" class="st5 st3 st4">PRDM9</text>
<text transform="matrix(1 0 0 1 1137.9181 1014.2642)" class="st3 st4">frequency</text>
<text transform="matrix(1 0 0 1 1137.9181 1014.2642)" class="st5 st3 st4">frequency</text>
<text transform="matrix(1 0 0 1 419.9301 93.0355)" class="st3 st4">Normalized fitness variation</text>
<text transform="matrix(1 0 0 1 419.9301 93.0355)" class="st5 st3 st4">Normalized fitness variation</text>
<text transform="matrix(1 0 0 1 516.9301 157.8355)" class="st3 st4">around mean erosion</text>
<text transform="matrix(1 0 0 1 516.9301 157.8355)" class="st5 st3 st4">around mean erosion</text>
<path id="XMLID_3_" class="st6" d="M480.5,385.2l-21.8,9.8l70.2,25.5l-30.7-68.1l-8.1,22.5L337.5,233.4c-2.8-2.6-7.3-2.5-9.9,0.4
	c-2.6,2.8-2.5,7.3,0.4,9.9L480.5,385.2z"/>
<path class="st6" d="M533.4,711.5l-71.6,21.3l21.2,11.1L328.3,871.1c-3,2.5-3.4,6.9-1,9.9c1.4,1.7,3.4,2.6,5.4,2.6
	c1.6,0,3.1-0.5,4.4-1.6l154.7-127.2l6.8,23L533.4,711.5z"/>
</svg>
