<?xml version="1.0" encoding="utf-8"?>
<!-- Generator: Adobe Illustrator 19.0.0, SVG Export Plug-In . SVG Version: 6.00 Build 0)  -->
<svg version="1.1" id="Layer_1" xmlns="http://www.w3.org/2000/svg" xmlns:xlink="http://www.w3.org/1999/xlink" x="0px" y="0px"
	 viewBox="0 0 1920 1080" style="enable-background:new 0 0 1920 1080;" xml:space="preserve">
<style type="text/css">
	.st0{fill:url(#XMLID_8_);stroke:#000000;stroke-width:2;stroke-linecap:round;stroke-linejoin:round;stroke-miterlimit:10;}
	.st1{fill:none;stroke:#808285;stroke-width:8;stroke-linecap:round;stroke-linejoin:round;stroke-miterlimit:10;}
	.st2{stroke:#000000;stroke-miterlimit:10;}
	.st3{font-family:'LMRoman12-Bold';}
	.st4{font-size:36px;}
	.st5{font-family:'Ubuntu-Bold';}
	.st6{font-size:50px;}
	.st7{fill:none;stroke:#F26522;stroke-width:3;stroke-miterlimit:10;}
	.st8{fill:none;stroke:#F26522;stroke-width:2;stroke-miterlimit:10;}
	.st9{fill:none;stroke:#808285;stroke-width:4;stroke-linecap:round;stroke-linejoin:round;stroke-miterlimit:10;}
	.st10{fill:none;stroke:#FBB040;stroke-width:9;stroke-miterlimit:10;}
	.st11{fill:none;stroke:#27AAE1;stroke-width:9;stroke-miterlimit:10;}
	.st12{fill:none;stroke:#FBB040;stroke-width:13;stroke-miterlimit:10;}
	.st13{fill:none;stroke:#27AAE1;stroke-width:13;stroke-miterlimit:10;}
	.st14{fill:none;stroke:#F26522;stroke-width:8;stroke-linecap:round;stroke-linejoin:round;}
	.st15{fill:#F26522;}
	.st16{fill:none;stroke:#F26522;stroke-width:8;stroke-miterlimit:10;}
	.st17{fill:url(#XMLID_9_);stroke:#000000;stroke-width:2;stroke-linecap:round;stroke-linejoin:round;stroke-miterlimit:10;}
	.st18{stroke:#000000;stroke-width:2;stroke-linecap:round;stroke-linejoin:round;stroke-miterlimit:10;}
	.st19{fill:url(#XMLID_10_);stroke:#000000;stroke-width:2;stroke-linecap:round;stroke-linejoin:round;stroke-miterlimit:10;}
	.st20{fill:none;stroke:#1C75BC;stroke-width:8;stroke-linecap:round;stroke-linejoin:round;}
	.st21{fill:#1C75BC;}
	.st22{fill:none;stroke:#1C75BC;stroke-width:3;stroke-miterlimit:10;}
	.st23{fill:none;stroke:#1C75BC;stroke-width:2;stroke-miterlimit:10;}
	.st24{fill:none;stroke:#1C75BC;stroke-width:8;stroke-miterlimit:10;}
</style>
<g id="XMLID_1_">
	
		<linearGradient id="XMLID_8_" gradientUnits="userSpaceOnUse" x1="975" y1="-16213.54" x2="975" y2="-15902.6934" gradientTransform="matrix(1 0 0 -1 0 -15302)">
		<stop  offset="0" style="stop-color:#FBB040"/>
		<stop  offset="1" style="stop-color:#FFFFFF"/>
	</linearGradient>
	<path id="XMLID_101_" class="st0" d="M960.8,862.4c0-109.8-14-201.5-46.6-264.6h121.7c-32.6,63.1-46.6,154.7-46.6,264.6L1010,849
		l-35,53.5L940,849L960.8,862.4z"/>
	<g id="XMLID_22_">
		<line id="XMLID_19_" class="st1" x1="572" y1="927" x2="1440" y2="927"/>
		<line id="XMLID_18_" class="st1" x1="572" y1="967" x2="1440" y2="967"/>
	</g>
	<text id="XMLID_117_" transform="matrix(1 0 0 1 1019.9964 763.4966)" class="st2 st3 st4">Erosion of HOTSPOTS</text>
	<g id="XMLID_258_">
		<text id="XMLID_300_" transform="matrix(1 0 0 1 1479.6786 961.6053)" class="st5 st6">w(         ,           ) ≈ 0</text>
		<g id="XMLID_219_">
			<path id="XMLID_299_" class="st7" d="M1624.8,961.6h-68.5c-6.8,0-12.3-5.5-12.3-12.3v-7.7c0-6.8,5.5-12.3,12.3-12.3h68.5
				c6.8,0,12.3,5.5,12.3,12.3v7.7C1637,956.1,1631.5,961.6,1624.8,961.6z"/>
			<line id="XMLID_296_" class="st8" x1="1591.4" y1="929.4" x2="1591.4" y2="961.6"/>
			<line id="XMLID_295_" class="st8" x1="1594.2" y1="929.4" x2="1594.2" y2="961.6"/>
			<line id="XMLID_294_" class="st8" x1="1597" y1="929.4" x2="1597" y2="961.6"/>
			<line id="XMLID_293_" class="st8" x1="1599.7" y1="929.4" x2="1599.7" y2="961.6"/>
			<line id="XMLID_292_" class="st8" x1="1602.5" y1="929.4" x2="1602.5" y2="961.6"/>
			<line id="XMLID_291_" class="st8" x1="1605.3" y1="929.4" x2="1605.3" y2="961.6"/>
			<line id="XMLID_290_" class="st8" x1="1608" y1="929.4" x2="1608" y2="961.6"/>
			<line id="XMLID_289_" class="st8" x1="1610.8" y1="929.4" x2="1610.8" y2="961.6"/>
			<line id="XMLID_288_" class="st8" x1="1613.5" y1="929.4" x2="1613.5" y2="961.6"/>
			<line id="XMLID_287_" class="st8" x1="1616.3" y1="929.4" x2="1616.3" y2="961.6"/>
		</g>
		<g id="XMLID_259_">
			<line id="XMLID_285_" class="st9" x1="1666.3" y1="941" x2="1783.4" y2="941"/>
			<line id="XMLID_284_" class="st9" x1="1666.3" y1="954" x2="1783.4" y2="954"/>
			<line id="XMLID_269_" class="st10" x1="1727.8" y1="941" x2="1736.8" y2="941"/>
			<line id="XMLID_268_" class="st10" x1="1727.8" y1="954" x2="1736.8" y2="954"/>
			<line id="XMLID_263_" class="st11" x1="1708.5" y1="941" x2="1717.5" y2="941"/>
			<line id="XMLID_262_" class="st11" x1="1708.5" y1="954" x2="1717.5" y2="954"/>
		</g>
	</g>
	<g id="XMLID_169_">
		<g id="XMLID_170_">
			<line id="XMLID_172_" class="st12" x1="1134.2" y1="927" x2="1200.9" y2="927"/>
			<line id="XMLID_171_" class="st12" x1="1134.2" y1="967" x2="1200.9" y2="967"/>
		</g>
		<g id="XMLID_272_">
			<line id="XMLID_274_" class="st13" x1="885.3" y1="927" x2="952.1" y2="927"/>
			<line id="XMLID_273_" class="st13" x1="885.3" y1="967" x2="952.1" y2="967"/>
		</g>
	</g>
	<g id="XMLID_41_">
		<g id="XMLID_65_">
			<g id="XMLID_134_">
				<path id="XMLID_138_" class="st14" d="M470,744c352.5,0,592,102.2,688.5,173.4"/>
				<g id="XMLID_136_">
					<polygon id="XMLID_137_" class="st15" points="1144.8,921.1 1155.5,915.2 1158.6,903.3 1172.8,928.6 					"/>
				</g>
			</g>
		</g>
		<g id="XMLID_42_">
			<g id="XMLID_127_">
				<path id="XMLID_132_" class="st14" d="M888.9,797.8c129.1,47.7,218.9,110.8,271,160.3"/>
				<g id="XMLID_130_">
					<polygon id="XMLID_131_" class="st15" points="1145.8,960.3 1157.1,955.5 1161.6,944.1 1172.8,970.8 					"/>
				</g>
			</g>
		</g>
	</g>
</g>
<g id="XMLID_2_">
	<g id="XMLID_29_">
		<path id="XMLID_43_" class="st16" d="M426.3,814.2H89.7C71.2,814.2,56,799,56,780.4v-72.5c0-18.6,15.2-33.7,33.7-33.7h336.5
			c18.6,0,33.7,15.2,33.7,33.7v72.5C460,799,444.8,814.2,426.3,814.2z"/>
		<line id="XMLID_40_" class="st16" x1="262" y1="674.2" x2="262" y2="814.2"/>
		<line id="XMLID_39_" class="st16" x1="274" y1="674.2" x2="274" y2="814.2"/>
		<line id="XMLID_38_" class="st16" x1="286" y1="674.2" x2="286" y2="814.2"/>
		<line id="XMLID_37_" class="st16" x1="298" y1="674.2" x2="298" y2="814.2"/>
		<line id="XMLID_36_" class="st16" x1="310" y1="674.2" x2="310" y2="814.2"/>
		<line id="XMLID_35_" class="st16" x1="322" y1="674.2" x2="322" y2="814.2"/>
		<line id="XMLID_34_" class="st16" x1="334" y1="674.2" x2="334" y2="814.2"/>
		<line id="XMLID_33_" class="st16" x1="346" y1="674.2" x2="346" y2="814.2"/>
		<line id="XMLID_32_" class="st16" x1="358" y1="674.2" x2="358" y2="814.2"/>
		<line id="XMLID_31_" class="st16" x1="370" y1="674.2" x2="370" y2="814.2"/>
	</g>
	
		<linearGradient id="XMLID_9_" gradientUnits="userSpaceOnUse" x1="338.0467" y1="-15922.1338" x2="330.6247" y2="-15714.3164" gradientTransform="matrix(1 0 0 -1 0 -15302)">
		<stop  offset="0" style="stop-color:#1C75BC"/>
		<stop  offset="1" style="stop-color:#F15A29"/>
	</linearGradient>
	<polygon id="XMLID_182_" class="st17" points="337.4,427.1 299,533.6 334.5,516.1 306.8,637.6 369,480.1 328.3,501.2 	"/>
	<polygon id="XMLID_183_" class="st18" points="306.8,637.6 327.2,617.5 310.4,625.3 301,611.5 	"/>
	<text id="XMLID_184_" transform="matrix(1 0 0 1 56 540.0002)" class="st2 st3 st4">MUTATION</text>
</g>
<g id="XMLID_4_">
	<line id="XMLID_17_" class="st1" x1="572" y1="521.3" x2="1440" y2="521.3"/>
	<line id="XMLID_16_" class="st1" x1="572" y1="561.3" x2="1440" y2="561.3"/>
	
		<linearGradient id="XMLID_10_" gradientUnits="userSpaceOnUse" x1="975" y1="-15800.3887" x2="975" y2="-15489.542" gradientTransform="matrix(1 0 0 -1 0 -15302)">
		<stop  offset="0" style="stop-color:#27AAE1"/>
		<stop  offset="1" style="stop-color:#FFFFFF"/>
	</linearGradient>
	<path id="XMLID_186_" class="st19" d="M960.8,449.3c0-109.8-14-201.5-46.6-264.6h121.7c-32.6,63.1-46.6,154.7-46.6,264.6l20.8-13.4
		l-35,53.5l-35-53.5L960.8,449.3z"/>
	<text id="XMLID_118_" transform="matrix(1 0 0 1 1019.9964 346.5175)" class="st2 st3 st4">Erosion of HOTSPOTS</text>
	<g id="XMLID_165_">
		<line id="XMLID_167_" class="st13" x1="885.3" y1="521" x2="952.1" y2="521"/>
		<line id="XMLID_166_" class="st13" x1="885.3" y1="561" x2="952.1" y2="561"/>
	</g>
	<g id="XMLID_102_">
		<g id="XMLID_109_">
			<g id="XMLID_110_">
				<path id="XMLID_113_" class="st20" d="M470,334.8c224.4,0,377.7,99.6,441.4,170.7"/>
				<g id="XMLID_111_">
					<polygon id="XMLID_112_" class="st21" points="897.2,506.3 908.9,502.7 914.4,491.8 923.1,519.4 					"/>
				</g>
			</g>
		</g>
		<g id="XMLID_103_">
			<g id="XMLID_104_">
				<path id="XMLID_107_" class="st20" d="M740,388.7c81.9,46.9,139.3,108.8,173.1,157.9"/>
				<g id="XMLID_105_">
					<polygon id="XMLID_106_" class="st21" points="898.9,545.7 911,543.5 917.7,533.2 923.1,561.7 					"/>
				</g>
			</g>
		</g>
	</g>
	<g id="XMLID_213_">
		<text id="XMLID_257_" transform="matrix(1 0 0 1 1479.6786 524.572)" class="st5 st6">w(         ,           ) ≈ 0</text>
		<path id="XMLID_256_" class="st22" d="M1624.8,524.6h-68.5c-6.8,0-12.3-5.5-12.3-12.3v-7.7c0-6.8,5.5-12.3,12.3-12.3h68.5
			c6.8,0,12.3,5.5,12.3,12.3v7.7C1637,519,1631.5,524.6,1624.8,524.6z"/>
		<line id="XMLID_255_" class="st23" x1="1585.9" y1="492.3" x2="1585.9" y2="524.6"/>
		<line id="XMLID_254_" class="st23" x1="1588.7" y1="492.3" x2="1588.7" y2="524.6"/>
		<line id="XMLID_253_" class="st23" x1="1591.4" y1="492.3" x2="1591.4" y2="524.6"/>
		<line id="XMLID_252_" class="st23" x1="1594.2" y1="492.3" x2="1594.2" y2="524.6"/>
		<line id="XMLID_251_" class="st23" x1="1597" y1="492.3" x2="1597" y2="524.6"/>
		<line id="XMLID_250_" class="st23" x1="1599.7" y1="492.3" x2="1599.7" y2="524.6"/>
		<line id="XMLID_249_" class="st23" x1="1602.5" y1="492.3" x2="1602.5" y2="524.6"/>
		<line id="XMLID_248_" class="st23" x1="1605.3" y1="492.3" x2="1605.3" y2="524.6"/>
		<line id="XMLID_247_" class="st23" x1="1608" y1="492.3" x2="1608" y2="524.6"/>
		<line id="XMLID_246_" class="st23" x1="1610.8" y1="492.3" x2="1610.8" y2="524.6"/>
		<line id="XMLID_245_" class="st23" x1="1613.5" y1="492.3" x2="1613.5" y2="524.6"/>
		<line id="XMLID_244_" class="st23" x1="1616.3" y1="492.3" x2="1616.3" y2="524.6"/>
		<line id="XMLID_241_" class="st23" x1="1619.1" y1="492.3" x2="1619.1" y2="524.6"/>
		<g id="XMLID_214_">
			<line id="XMLID_238_" class="st9" x1="1666.3" y1="504" x2="1783.4" y2="504"/>
			<line id="XMLID_235_" class="st9" x1="1666.3" y1="517" x2="1783.4" y2="517"/>
			<line id="XMLID_232_" class="st10" x1="1672.3" y1="504" x2="1681.3" y2="504"/>
			<line id="XMLID_229_" class="st10" x1="1672.3" y1="517" x2="1681.3" y2="517"/>
			<line id="XMLID_226_" class="st10" x1="1727.8" y1="504" x2="1736.8" y2="504"/>
			<line id="XMLID_224_" class="st10" x1="1727.8" y1="517" x2="1736.8" y2="517"/>
			<line id="XMLID_223_" class="st10" x1="1767.3" y1="504" x2="1776.3" y2="504"/>
			<line id="XMLID_221_" class="st10" x1="1767.3" y1="517" x2="1776.3" y2="517"/>
			<line id="XMLID_218_" class="st11" x1="1708.5" y1="504" x2="1717.5" y2="504"/>
			<line id="XMLID_217_" class="st11" x1="1708.5" y1="517" x2="1717.5" y2="517"/>
		</g>
	</g>
</g>
<g id="XMLID_6_">
	<g id="XMLID_44_">
		<path id="XMLID_58_" class="st24" d="M426.3,404.8H89.7c-18.6,0-33.7-15.2-33.7-33.7v-72.5c0-18.6,15.2-33.7,33.7-33.7h336.5
			c18.6,0,33.7,15.2,33.7,33.7v72.5C460,389.6,444.8,404.8,426.3,404.8z"/>
		<line id="XMLID_57_" class="st24" x1="238" y1="264.8" x2="238" y2="404.8"/>
		<line id="XMLID_56_" class="st24" x1="250" y1="264.8" x2="250" y2="404.8"/>
		<line id="XMLID_55_" class="st24" x1="262" y1="264.8" x2="262" y2="404.8"/>
		<line id="XMLID_54_" class="st24" x1="274" y1="264.8" x2="274" y2="404.8"/>
		<line id="XMLID_53_" class="st24" x1="286" y1="264.8" x2="286" y2="404.8"/>
		<line id="XMLID_52_" class="st24" x1="298" y1="264.8" x2="298" y2="404.8"/>
		<line id="XMLID_51_" class="st24" x1="310" y1="264.8" x2="310" y2="404.8"/>
		<line id="XMLID_50_" class="st24" x1="322" y1="264.8" x2="322" y2="404.8"/>
		<line id="XMLID_49_" class="st24" x1="334" y1="264.8" x2="334" y2="404.8"/>
		<line id="XMLID_48_" class="st24" x1="346" y1="264.8" x2="346" y2="404.8"/>
		<line id="XMLID_47_" class="st24" x1="358" y1="264.8" x2="358" y2="404.8"/>
		<line id="XMLID_46_" class="st24" x1="370" y1="264.8" x2="370" y2="404.8"/>
		<line id="XMLID_45_" class="st24" x1="382" y1="264.8" x2="382" y2="404.8"/>
	</g>
	<g id="XMLID_5_">
		<g id="XMLID_20_">
			<line id="XMLID_14_" class="st1" x1="572" y1="108.3" x2="1440" y2="108.3"/>
			<line id="XMLID_15_" class="st1" x1="572" y1="148.3" x2="1440" y2="148.3"/>
		</g>
		<g id="XMLID_212_">
			<g id="XMLID_281_">
				<line id="XMLID_283_" class="st12" x1="617" y1="108.3" x2="683.8" y2="108.3"/>
				<line id="XMLID_282_" class="st12" x1="617" y1="148.3" x2="683.8" y2="148.3"/>
			</g>
			<g id="XMLID_278_">
				<line id="XMLID_280_" class="st12" x1="1027.8" y1="108.3" x2="1094.6" y2="108.3"/>
				<line id="XMLID_279_" class="st12" x1="1027.8" y1="148.3" x2="1094.6" y2="148.3"/>
			</g>
			<g id="XMLID_275_">
				<line id="XMLID_277_" class="st12" x1="1320.7" y1="108.3" x2="1387.5" y2="108.3"/>
				<line id="XMLID_276_" class="st12" x1="1320.7" y1="148.3" x2="1387.5" y2="148.3"/>
			</g>
			<g id="XMLID_120_">
				<g id="XMLID_62_">
					<line id="XMLID_64_" class="st13" x1="714" y1="108.3" x2="780.8" y2="108.3"/>
					<line id="XMLID_63_" class="st13" x1="714" y1="148.3" x2="780.8" y2="148.3"/>
				</g>
				<g id="XMLID_66_">
					<line id="XMLID_68_" class="st13" x1="885.3" y1="108.3" x2="952.1" y2="108.3"/>
					<line id="XMLID_67_" class="st13" x1="885.3" y1="148.3" x2="952.1" y2="148.3"/>
				</g>
				<g id="XMLID_76_">
					<line id="XMLID_164_" class="st13" x1="1290.2" y1="108.3" x2="1357" y2="108.3"/>
					<line id="XMLID_163_" class="st13" x1="1290.2" y1="148.3" x2="1357" y2="148.3"/>
				</g>
			</g>
		</g>
		<g id="XMLID_210_">
			<text id="XMLID_119_" transform="matrix(1 0 0 1 1479.6786 140.5388)" class="st5 st6">w(         ,           ) ≈ 1</text>
			<path id="XMLID_208_" class="st22" d="M1624.8,140.5h-68.5c-6.8,0-12.3-5.5-12.3-12.3v-7.7c0-6.8,5.5-12.3,12.3-12.3h68.5
				c6.8,0,12.3,5.5,12.3,12.3v7.7C1637,135,1631.5,140.5,1624.8,140.5z"/>
			<line id="XMLID_207_" class="st23" x1="1585.9" y1="108.3" x2="1585.9" y2="140.5"/>
			<line id="XMLID_206_" class="st23" x1="1588.7" y1="108.3" x2="1588.7" y2="140.5"/>
			<line id="XMLID_205_" class="st23" x1="1591.4" y1="108.3" x2="1591.4" y2="140.5"/>
			<line id="XMLID_204_" class="st23" x1="1594.2" y1="108.3" x2="1594.2" y2="140.5"/>
			<line id="XMLID_203_" class="st23" x1="1597" y1="108.3" x2="1597" y2="140.5"/>
			<line id="XMLID_202_" class="st23" x1="1599.7" y1="108.3" x2="1599.7" y2="140.5"/>
			<line id="XMLID_201_" class="st23" x1="1602.5" y1="108.3" x2="1602.5" y2="140.5"/>
			<line id="XMLID_200_" class="st23" x1="1605.3" y1="108.3" x2="1605.3" y2="140.5"/>
			<line id="XMLID_199_" class="st23" x1="1608" y1="108.3" x2="1608" y2="140.5"/>
			<line id="XMLID_125_" class="st23" x1="1610.8" y1="108.3" x2="1610.8" y2="140.5"/>
			<line id="XMLID_124_" class="st23" x1="1613.5" y1="108.3" x2="1613.5" y2="140.5"/>
			<line id="XMLID_123_" class="st23" x1="1616.3" y1="108.3" x2="1616.3" y2="140.5"/>
			<line id="XMLID_121_" class="st23" x1="1619.1" y1="108.3" x2="1619.1" y2="140.5"/>
			<g id="XMLID_209_">
				<line id="XMLID_243_" class="st9" x1="1666.3" y1="119.9" x2="1783.4" y2="119.9"/>
				<line id="XMLID_242_" class="st9" x1="1666.3" y1="132.9" x2="1783.4" y2="132.9"/>
				<line id="XMLID_240_" class="st10" x1="1672.3" y1="119.9" x2="1681.3" y2="119.9"/>
				<line id="XMLID_239_" class="st10" x1="1672.3" y1="132.9" x2="1681.3" y2="132.9"/>
				<line id="XMLID_237_" class="st10" x1="1727.8" y1="119.9" x2="1736.8" y2="119.9"/>
				<line id="XMLID_236_" class="st10" x1="1727.8" y1="132.9" x2="1736.8" y2="132.9"/>
				<line id="XMLID_234_" class="st10" x1="1767.3" y1="119.9" x2="1776.3" y2="119.9"/>
				<line id="XMLID_233_" class="st10" x1="1767.3" y1="132.9" x2="1776.3" y2="132.9"/>
				<line id="XMLID_231_" class="st11" x1="1685.4" y1="119.9" x2="1694.4" y2="119.9"/>
				<line id="XMLID_230_" class="st11" x1="1685.4" y1="132.9" x2="1694.4" y2="132.9"/>
				<line id="XMLID_228_" class="st11" x1="1708.5" y1="119.9" x2="1717.5" y2="119.9"/>
				<line id="XMLID_227_" class="st11" x1="1708.5" y1="132.9" x2="1717.5" y2="132.9"/>
				<line id="XMLID_225_" class="st11" x1="1763.2" y1="119.9" x2="1772.2" y2="119.9"/>
				<line id="XMLID_222_" class="st11" x1="1763.2" y1="132.9" x2="1772.2" y2="132.9"/>
			</g>
		</g>
	</g>
	<g id="XMLID_23_">
		<g id="XMLID_24_">
			<g id="XMLID_70_">
				<path id="XMLID_74_" class="st20" d="M470,334.8c137.3,0,231.5-97.4,271.6-168.2"/>
				<g id="XMLID_72_">
					<polygon id="XMLID_73_" class="st21" points="747.3,179.3 739.7,169.8 727.5,168.7 750,150.5 					"/>
				</g>
			</g>
		</g>
		<g id="XMLID_25_">
			<g id="XMLID_77_">
				<path id="XMLID_80_" class="st20" d="M636.9,281c50-46.3,85.3-107.2,106.2-155.9"/>
				<g id="XMLID_78_">
					<polygon id="XMLID_79_" class="st21" points="750.2,137.3 741.6,128.5 729.4,128.7 750,108.3 					"/>
				</g>
			</g>
		</g>
	</g>
	<g id="XMLID_30_">
		<g id="XMLID_59_">
			<g id="XMLID_82_">
				<path id="XMLID_85_" class="st20" d="M470,334.8c224.4,0,377.7-99.4,441.4-170.4"/>
				<g id="XMLID_83_">
					<polygon id="XMLID_84_" class="st21" points="914.4,178.1 908.9,167.2 897.2,163.6 923.1,150.5 					"/>
				</g>
			</g>
		</g>
		<g id="XMLID_26_">
			<g id="XMLID_87_">
				<path id="XMLID_97_" class="st20" d="M740,281c81.9-46.8,139.3-108.6,173.1-157.6"/>
				<g id="XMLID_88_">
					<polygon id="XMLID_96_" class="st21" points="917.7,136.8 911,126.5 898.9,124.3 923.1,108.3 					"/>
				</g>
			</g>
		</g>
	</g>
	<g id="XMLID_28_">
		<g id="XMLID_71_">
			<g id="XMLID_90_">
				<path id="XMLID_93_" class="st20" d="M470,334.8c432.4,0,725.2-103.3,841.3-174.5"/>
				<g id="XMLID_91_">
					<polygon id="XMLID_92_" class="st21" points="1310.1,174.3 1308.1,162.3 1298,155.3 1326.6,150.5 					"/>
				</g>
			</g>
		</g>
		<g id="XMLID_27_">
			<g id="XMLID_95_">
				<path id="XMLID_100_" class="st20" d="M980.5,281c158.8-48,268.8-111.7,332-161.3"/>
				<g id="XMLID_98_">
					<polygon id="XMLID_99_" class="st21" points="1312.8,133.8 1309.5,122 1298.7,116.3 1326.6,108.3 					"/>
				</g>
			</g>
		</g>
	</g>
</g>
<g id="XMLID_3_">
	<g id="XMLID_122_">
		<g id="XMLID_147_">
			<path id="XMLID_151_" class="st14" d="M470,744c448.8,0,752.6-103.6,872.7-174.7"/>
			<g id="XMLID_149_">
				<polygon id="XMLID_150_" class="st15" points="1341.2,583.2 1339.4,571.1 1329.4,564 1358.1,559.7 				"/>
			</g>
		</g>
	</g>
	<g id="XMLID_116_">
		<g id="XMLID_140_">
			<path id="XMLID_145_" class="st14" d="M999.3,690.2c164.9-48.1,279-112,344.5-161.5"/>
			<g id="XMLID_143_">
				<polygon id="XMLID_144_" class="st15" points="1343.9,542.7 1340.8,530.9 1330.1,524.9 1358.1,517.5 				"/>
			</g>
		</g>
	</g>
	<g id="XMLID_168_">
		<g id="XMLID_179_">
			<line id="XMLID_181_" class="st12" x1="617" y1="521.3" x2="683.8" y2="521.3"/>
			<line id="XMLID_180_" class="st12" x1="617" y1="561.3" x2="683.8" y2="561.3"/>
		</g>
		<g id="XMLID_176_">
			<line id="XMLID_178_" class="st12" x1="1027.8" y1="521.3" x2="1094.6" y2="521.3"/>
			<line id="XMLID_177_" class="st12" x1="1027.8" y1="561.3" x2="1094.6" y2="561.3"/>
		</g>
		<g id="XMLID_173_">
			<line id="XMLID_175_" class="st12" x1="1320.7" y1="521.3" x2="1387.5" y2="521.3"/>
			<line id="XMLID_174_" class="st12" x1="1320.7" y1="561.3" x2="1387.5" y2="561.3"/>
		</g>
	</g>
	<g id="XMLID_216_">
		<text id="XMLID_331_" transform="matrix(1 0 0 1 1479.6786 584.9391)" class="st5 st6">w(         ,           ) ≈ 1</text>
		<g id="XMLID_215_">
			<path id="XMLID_330_" class="st7" d="M1624.8,584.9h-68.5c-6.8,0-12.3-5.5-12.3-12.3V565c0-6.8,5.5-12.3,12.3-12.3h68.5
				c6.8,0,12.3,5.5,12.3,12.3v7.7C1637,579.4,1631.5,584.9,1624.8,584.9z"/>
			<line id="XMLID_327_" class="st8" x1="1591.4" y1="552.7" x2="1591.4" y2="584.9"/>
			<line id="XMLID_326_" class="st8" x1="1594.2" y1="552.7" x2="1594.2" y2="584.9"/>
			<line id="XMLID_325_" class="st8" x1="1597" y1="552.7" x2="1597" y2="584.9"/>
			<line id="XMLID_324_" class="st8" x1="1599.7" y1="552.7" x2="1599.7" y2="584.9"/>
			<line id="XMLID_323_" class="st8" x1="1602.5" y1="552.7" x2="1602.5" y2="584.9"/>
			<line id="XMLID_322_" class="st8" x1="1605.3" y1="552.7" x2="1605.3" y2="584.9"/>
			<line id="XMLID_321_" class="st8" x1="1608" y1="552.7" x2="1608" y2="584.9"/>
			<line id="XMLID_320_" class="st8" x1="1610.8" y1="552.7" x2="1610.8" y2="584.9"/>
			<line id="XMLID_319_" class="st8" x1="1613.5" y1="552.7" x2="1613.5" y2="584.9"/>
			<line id="XMLID_318_" class="st8" x1="1616.3" y1="552.7" x2="1616.3" y2="584.9"/>
		</g>
		<g id="XMLID_302_">
			<line id="XMLID_316_" class="st9" x1="1666.3" y1="564.3" x2="1783.4" y2="564.3"/>
			<line id="XMLID_315_" class="st9" x1="1666.3" y1="577.3" x2="1783.4" y2="577.3"/>
			<line id="XMLID_314_" class="st10" x1="1672.3" y1="564.3" x2="1681.3" y2="564.3"/>
			<line id="XMLID_313_" class="st10" x1="1672.3" y1="577.3" x2="1681.3" y2="577.3"/>
			<line id="XMLID_312_" class="st10" x1="1727.8" y1="564.3" x2="1736.8" y2="564.3"/>
			<line id="XMLID_311_" class="st10" x1="1727.8" y1="577.3" x2="1736.8" y2="577.3"/>
			<line id="XMLID_310_" class="st10" x1="1767.3" y1="564.3" x2="1776.3" y2="564.3"/>
			<line id="XMLID_309_" class="st10" x1="1767.3" y1="577.3" x2="1776.3" y2="577.3"/>
			<line id="XMLID_306_" class="st11" x1="1708.5" y1="564.3" x2="1717.5" y2="564.3"/>
			<line id="XMLID_305_" class="st11" x1="1708.5" y1="577.3" x2="1717.5" y2="577.3"/>
		</g>
	</g>
	<g id="XMLID_141_">
		<g id="XMLID_148_">
			<g id="XMLID_195_">
				<path id="XMLID_198_" class="st14" d="M470,744c87.8,0,148.3-96.4,174.3-167.1"/>
				<g id="XMLID_196_">
					<polygon id="XMLID_197_" class="st15" points="652,588.6 642.9,580.3 630.7,581.2 650.1,559.7 					"/>
				</g>
			</g>
		</g>
		<g id="XMLID_142_">
			<g id="XMLID_187_">
				<path id="XMLID_193_" class="st14" d="M577.3,690.2c32-46,54.6-106.6,68.1-155.2"/>
				<g id="XMLID_191_">
					<polygon id="XMLID_192_" class="st15" points="654.1,546.1 644.5,538.6 632.4,540.3 650.1,517.5 					"/>
				</g>
			</g>
		</g>
	</g>
	<g id="XMLID_128_">
		<g id="XMLID_135_">
			<g id="XMLID_158_">
				<path id="XMLID_161_" class="st14" d="M470,744c297.2,0,499.7-101,582.2-172"/>
				<g id="XMLID_159_">
					<polygon id="XMLID_160_" class="st15" points="1053.4,585.9 1049.4,574.4 1038.3,569.2 1065.6,559.7 					"/>
				</g>
			</g>
		</g>
		<g id="XMLID_129_">
			<g id="XMLID_153_">
				<path id="XMLID_156_" class="st14" d="M825,690.2c108.7-47.3,184.5-109.8,228.8-159"/>
				<g id="XMLID_154_">
					<polygon id="XMLID_155_" class="st15" points="1056.5,545 1051.2,534 1039.6,530.2 1065.6,517.5 					"/>
				</g>
			</g>
		</g>
	</g>
</g>
</svg>
